inDegrees=no
DataType=double
version=3
OpenSimVersion=4.4-2022-10-11-798caa840
endheader
time	elv_angle	shoulder_elv	shoulder_rot	elbow_flexion	pro_sup	deviation	flexion
2.402085143353605	0.8552113334772214	1.204277183876087	0.4188790204786391	1.178438425879577	0	0	0
2.406255430060817	0.8552113334772214	1.204277183876087	0.4188790204786391	1.179120787446386	0	0	0
2.410425716768028	0.8552113334772214	1.204277183876087	0.4188790204786391	1.179803149013196	0	0	0
2.414596003475239	0.8552113334772214	1.204277183876087	0.4188790204786391	1.180485510580005	0	0	0
2.41876629018245	0.8552113334772214	1.204277183876087	0.4188790204786391	1.181167872146814	0	0	0
2.422936576889661	0.8552113334772214	1.204277183876087	0.4188790204786391	1.181850233713623	0	0	0
2.427106863596872	0.8552113334772214	1.204277183876087	0.4188790204786391	1.182532595280433	0	0	0
2.431277150304084	0.8552113334772214	1.204277183876087	0.4188790204786391	1.183214956847242	0	0	0
2.435447437011295	0.8552113334772214	1.204277183876087	0.4188790204786391	1.183897318414051	0	0	0
2.439617723718506	0.8552113334772214	1.204277183876087	0.4188790204786391	1.184579679980861	0	0	0
2.443788010425717	0.8552113334772214	1.204277183876087	0.4188790204786391	1.18526204154767	0	0	0
2.447958297132928	0.8552113334772214	1.204277183876087	0.4188790204786391	1.185944403114479	0	0	0
2.452128583840139	0.8552113334772214	1.204277183876087	0.4188790204786391	1.186626764681288	0	0	0
2.45629887054735	0.8552113334772214	1.204277183876087	0.4188790204786391	1.187309126248097	0	0	0
2.460469157254561	0.8552113334772214	1.204277183876087	0.4188790204786391	1.187991487814906	0	0	0
2.464639443961772	0.8552113334772214	1.204277183876087	0.4188790204786391	1.188673849381716	0	0	0
2.468809730668983	0.8552113334772214	1.204277183876087	0.4188790204786391	1.189356210948525	0	0	0
2.472980017376195	0.8552113334772214	1.204277183876087	0.4188790204786391	1.190038572515334	0	0	0
2.477150304083406	0.8552113334772214	1.204277183876087	0.4188790204786391	1.190720934082144	0	0	0
2.481320590790617	0.8552113334772214	1.204277183876087	0.4188790204786391	1.191403295648953	0	0	0
2.485490877497828	0.8552113334772214	1.204277183876087	0.4188790204786391	1.192085657215762	0	0	0
2.489661164205039	0.8552113334772214	1.204277183876087	0.4188790204786391	1.192768018782571	0	0	0
2.49383145091225	0.8552113334772214	1.204277183876087	0.4188790204786391	1.193450380349381	0	0	0
2.498001737619461	0.8552113334772214	1.204277183876087	0.4188790204786391	1.19413274191619	0	0	0
2.502172024326673	0.8552113334772214	1.204277183876087	0.4188790204786391	1.194815103482999	0	0	0
2.506342311033884	0.8552113334772214	1.204277183876087	0.4188790204786391	1.195497465049808	0	0	0
2.510512597741095	0.8552113334772214	1.204277183876087	0.4188790204786391	1.196179826616617	0	0	0
2.514682884448306	0.8552113334772214	1.204277183876087	0.4188790204786391	1.196862188183427	0	0	0
2.518853171155517	0.8552113334772214	1.204277183876087	0.4188790204786391	1.197544549750236	0	0	0
2.523023457862728	0.8552113334772214	1.204277183876087	0.4188790204786391	1.198226911317045	0	0	0
2.527193744569939	0.8552113334772214	1.204277183876087	0.4188790204786391	1.198909272883855	0	0	0
2.53136403127715	0.8552113334772214	1.204277183876087	0.4188790204786391	1.199591634450664	0	0	0
2.535534317984362	0.8552113334772214	1.204277183876087	0.4188790204786391	1.200273996017473	0	0	0
2.539704604691573	0.8552113334772214	1.204277183876087	0.4188790204786391	1.200956357584282	0	0	0
2.543874891398784	0.8552113334772214	1.204277183876087	0.4188790204786391	1.201638719151092	0	0	0
2.548045178105995	0.8552113334772214	1.204277183876087	0.4188790204786391	1.202321080717901	0	0	0
2.552215464813206	0.8552113334772214	1.204277183876087	0.4188790204786391	1.20300344228471	0	0	0
2.556385751520417	0.8552113334772214	1.204277183876087	0.4188790204786391	1.203685803851519	0	0	0
2.560556038227628	0.8552113334772214	1.204277183876087	0.4188790204786391	1.204368165418329	0	0	0
2.564726324934839	0.8552113334772214	1.204277183876087	0.4188790204786391	1.205050526985138	0	0	0
2.56889661164205	0.8552113334772214	1.204277183876087	0.4188790204786391	1.205732888551947	0	0	0
2.573066898349261	0.8552113334772214	1.204277183876087	0.4188790204786391	1.206415250118756	0	0	0
2.577237185056473	0.8552113334772214	1.204277183876087	0.4188790204786391	1.207097611685566	0	0	0
2.581407471763684	0.8552113334772214	1.204277183876087	0.4188790204786391	1.207779973252375	0	0	0
2.585577758470895	0.8552113334772214	1.204277183876087	0.4188790204786391	1.208462334819184	0	0	0
2.589748045178106	0.8552113334772214	1.204277183876087	0.4188790204786391	1.209144696385993	0	0	0
2.593918331885317	0.8552113334772214	1.204277183876087	0.4188790204786391	1.209827057952803	0	0	0
2.598088618592528	0.8552113334772214	1.204277183876087	0.4188790204786391	1.210509419519612	0	0	0
2.60225890529974	0.8552113334772214	1.204277183876087	0.4188790204786391	1.211191781086421	0	0	0
2.606429192006951	0.8552113334772214	1.204277183876087	0.4188790204786391	1.21187414265323	0	0	0
2.610599478714162	0.8552113334772214	1.204277183876087	0.4188790204786391	1.21255650422004	0	0	0
2.614769765421373	0.8552113334772214	1.204277183876087	0.4188790204786391	1.213238865786849	0	0	0
2.618940052128584	0.8552113334772214	1.204277183876087	0.4188790204786391	1.213921227353658	0	0	0
2.623110338835795	0.8552113334772214	1.204277183876087	0.4188790204786391	1.214603588920467	0	0	0
2.627280625543006	0.8552113334772214	1.204277183876087	0.4188790204786391	1.215285950487277	0	0	0
2.631450912250217	0.8552113334772214	1.204277183876087	0.4188790204786391	1.215968312054086	0	0	0
2.635621198957428	0.8552113334772214	1.204277183876087	0.4188790204786391	1.216650673620895	0	0	0
2.639791485664639	0.8552113334772214	1.204277183876087	0.4188790204786391	1.217333035187705	0	0	0
2.64396177237185	0.8552113334772214	1.204277183876087	0.4188790204786391	1.218015396754514	0	0	0
2.648132059079062	0.8552113334772214	1.204277183876087	0.4188790204786391	1.218697758321323	0	0	0
2.652302345786273	0.8552113334772214	1.204277183876087	0.4188790204786391	1.219380119888132	0	0	0
